<svg xmlns="http://www.w3.org/2000/svg" viewBox="0 0 1280 720" role="img" aria-label="配信サムネイルのプレースホルダー">
  <defs>
    <linearGradient id="day" x1="0" y1="0" x2="1" y2="1">
      <stop stop-color="#EAF4FB"/>
      <stop offset="1" stop-color="#FFF8ED"/>
    </linearGradient>
  </defs>
  <rect width="1280" height="720" fill="url(#day)"/>
  <circle cx="1060" cy="128" r="76" fill="#FFD982"/>
  <g fill="#FFFFFF">
    <ellipse cx="260" cy="170" rx="126" ry="43"/>
    <circle cx="202" cy="149" r="46"/>
    <circle cx="286" cy="130" r="64"/>
  </g>
  <path d="M0 540 184 358l166 134 220-250 230 284 194-210 286 224V720H0Z" fill="#B8DDE7"/>
  <path d="M0 608 222 455 414 580 650 400 868 588 1072 430 1280 568V720H0Z" fill="#82C9B1"/>
  <circle cx="630" cy="430" r="82" fill="#FFFFFF" opacity=".88"/>
  <path d="m606 382 96 48-96 48Z" fill="#E8484E"/>
</svg>
